
<svg width="482px" height="118px" viewBox="0 0 482 118" version="1.1" xmlns="http://www.w3.org/2000/svg" xmlns:xlink="http://www.w3.org/1999/xlink">
    <g id="Page-1" stroke="none" stroke-width="1" fill="none" fill-rule="evenodd">
        <g id="textbook" transform="translate(-2.000000, -2.000000)">
            <path d="M2,61 C2,28.420395 28.420395,2 61,2 C93.579605,2 120,28.420395 120,61 C120,93.579605 93.579605,120 61,120 C28.420395,120 2,93.579605 2,61 Z" id="Path" fill="#4ABC96" fill-rule="nonzero"></path>
            <g id="Group">
                <path d="M92.8820313,84.5660156 C94.0257813,91.9765625 91.7621094,95.0503906 84.3515625,96.1941406 L38.4585938,103.247266 L26.30625,28.1171875 L72.2230469,21.0640625 C79.6335938,19.9203125 82.7074219,22.1839844 83.8511719,29.5945313 L92.8820313,84.5660156 Z" id="Path" fill="#4E4E4E" fill-rule="nonzero"></path>
                <path d="M94.7882813,81.8496094 C95.9320313,89.2601562 93.6683594,92.3339844 86.2578125,93.4777344 L40.3648438,100.530859 L28.2125,25.4007812 L74.1292969,18.3476562 C81.5398438,17.2039062 84.6136719,19.4675781 85.7574219,26.878125 L94.7882813,81.8496094 Z" id="Path" fill="#58595A" fill-rule="nonzero"></path>
                <g></g>
                <g transform="translate(22.160156, 30.738281)" id="Path">
                    <path d="M12.390625,4.765625 C12.5097656,5.528125 12.009375,6.24296875 11.246875,6.36210938 C10.484375,6.48125 9.76953125,5.98085938 9.65039063,5.21835938 C9.53125,4.45585938 10.0316406,3.74101563 10.7941406,3.621875 C11.5566406,3.50273437 12.2714844,4.003125 12.390625,4.765625 Z" fill="#333535" fill-rule="nonzero"></path>
                    <path d="M6.31445313,10.6511719 C3.38359375,11.05625 0.691015625,9.03085938 0.2859375,6.12382813 C-0.119140625,3.19296875 1.90625,0.500390625 4.83710938,0.0953125 C7.76796875,-0.309765625 10.4605469,1.715625 10.865625,4.62265625" stroke="#818282"></path>
                </g>
                <g transform="translate(24.542969, 44.320313)" id="Path">
                    <path d="M12.1761719,4.90859375 C12.2953125,5.67109375 11.7949219,6.3859375 11.0324219,6.50507813 C10.2699219,6.62421875 9.55507813,6.12382813 9.4359375,5.36132813 C9.31679688,4.59882813 9.8171875,3.88398438 10.5796875,3.76484375 C11.3421875,3.64570313 12.0570313,4.16992188 12.1761719,4.90859375 Z" fill="#333535" fill-rule="nonzero"></path>
                    <path d="M6.12382813,10.8179688 C3.19296875,11.2230469 0.500390625,9.19765625 0.0953125,6.290625 C-0.309765625,3.35976563 1.715625,0.6671875 4.64648438,0.262109375 C7.57734375,-0.14296875 10.2699219,1.88242188 10.675,4.81328125" stroke="#818282"></path>
                </g>
                <g transform="translate(26.687500, 58.855469)" id="Path">
                    <path d="M12.3429688,4.78945313 C12.4621094,5.55195313 11.9617188,6.26679688 11.1992188,6.3859375 C10.4367188,6.50507813 9.721875,6.0046875 9.60273438,5.2421875 C9.48359375,4.4796875 9.98398438,3.76484375 10.7464844,3.64570313 C11.5089844,3.5265625 12.2238281,4.02695313 12.3429688,4.78945313 Z" fill="#333535" fill-rule="nonzero"></path>
                    <path d="M6.26679688,10.675 C3.3359375,11.0800781 0.643359375,9.0546875 0.23828125,6.12382813 C-0.166796875,3.19296875 1.85859375,0.500390625 4.78945313,0.0953125 C7.7203125,-0.309765625 10.4128906,1.715625 10.8179688,4.62265625" stroke="#818282"></path>
                </g>
                <g transform="translate(29.070313, 73.152344)" id="Path">
                    <path d="M12.3191406,4.88476562 C12.4382813,5.64726562 11.9378906,6.36210937 11.1753906,6.48125 C10.4128906,6.60039062 9.69804688,6.1 9.57890625,5.3375 C9.45976563,4.575 9.96015625,3.86015625 10.7226563,3.74101562 C11.4851563,3.621875 12.2,4.12226562 12.3191406,4.88476562 Z" fill="#333535" fill-rule="nonzero"></path>
                    <path d="M6.24296875,10.7941406 C3.31210938,11.1992187 0.61953125,9.17382812 0.214453125,6.24296875 C-0.190625,3.31210937 1.83476563,0.61953125 4.765625,0.214453125 C7.69648438,-0.190625 10.3890625,1.83476562 10.7941406,4.74179687" stroke="#818282"></path>
                </g>
                <g transform="translate(31.453125, 87.687500)" id="Path">
                    <path d="M12.2476562,4.765625 C12.3667969,5.528125 11.8664062,6.24296875 11.1039062,6.36210937 C10.3414062,6.48125 9.6265625,5.98085937 9.50742187,5.21835937 C9.38828125,4.45585937 9.88867187,3.74101562 10.6511719,3.621875 C11.3898437,3.50273437 12.1046875,4.003125 12.2476562,4.765625 Z" fill="#333535" fill-rule="nonzero"></path>
                    <path d="M6.17148437,10.6511719 C3.240625,11.05625 0.548046875,9.03085937 0.14296875,6.12382812 C-0.262109375,3.19296875 1.76328125,0.500390625 4.6703125,0.0953125 C7.60117187,-0.309765625 10.29375,1.715625 10.6988281,4.62265625" stroke="#818282"></path>
                </g>
                <polygon id="Rectangle" fill="#4E4E4E" fill-rule="nonzero" transform="translate(60.606238, 47.331759) rotate(-8.992286) translate(-60.606238, -47.331759) " points="41.1507588 35.977765 80.0617169 35.977765 80.0617169 58.6857522 41.1507588 58.6857522"></polygon>
                <polygon id="Path" fill="#FFFFFF" fill-rule="nonzero" points="79.3238281 53.4703125 44.6777344 58.9507813 41.8421875 41.0082031 76.4882813 35.5039063"></polygon>
                <g transform="translate(45.035156, 38.125000)" fill="#818282" fill-rule="nonzero" id="Path">
                    <polygon points="28.8320313 1.715625 0.33359375 6.26679687 0.0953125 4.71796875 28.5699219 0.166796875"></polygon>
                    <polygon points="29.546875 5.59960938 1.07226563 10.1507812 0.81015625 8.60195312 29.3085938 4.05078125"></polygon>
                    <polygon points="30.1902344 9.721875 1.715625 14.2730469 1.45351563 12.7242188 29.9519531 8.17304687"></polygon>
                    <polygon points="18.0617188 15.7742187 2.35898438 18.2761719 2.096875 16.7273437 17.7996094 14.2253906"></polygon>
                </g>
            </g>
        </g>
        <text id="LagIS-online" font-family="Helvetica" font-size="64" font-weight="normal" fill="#58595A">
            <tspan x="126" y="83">LagIS-online</tspan>
        </text>
    </g>
</svg>