
<svg width="498px" height="498px" viewBox="0 0 498 498" version="1.1" xmlns="http://www.w3.org/2000/svg" xmlns:xlink="http://www.w3.org/1999/xlink">
    <g id="Page-1" stroke="none" stroke-width="1" fill="none" fill-rule="evenodd">
        <g id="textbook" transform="translate(-7.000000, -7.000000)">
            <path d="M7.9,256 C7.9,119 119,7.9 256,7.9 C393,7.9 504.1,119 504.1,256 C504.1,393 393,504.1 256,504.1 C119,504.1 7.9,393 7.9,256 Z" id="Path" fill="#4ABC96" fill-rule="nonzero"></path>
            <g id="Group">
                <path d="M389.8,354.9 C394.6,386 385.1,398.9 354,403.7 L161.4,433.3 L110.4,118 L303.1,88.4 C334.2,83.6 347.1,93.1 351.9,124.2 L389.8,354.9 Z" id="Path" fill="#4E4E4E" fill-rule="nonzero"></path>
                <path d="M397.8,343.5 C402.6,374.6 393.1,387.5 362,392.3 L169.4,421.9 L118.4,106.6 L311.1,77 C342.2,72.2 355.1,81.7 359.9,112.8 L397.8,343.5 Z" id="Path" fill="#58595A" fill-rule="nonzero"></path>
                <g></g>
                <g transform="translate(93.000000, 129.000000)" id="Path">
                    <path d="M52,20 C52.5,23.2 50.4,26.2 47.2,26.7 C44,27.2 41,25.1 40.5,21.9 C40,18.7 42.1,15.7 45.3,15.2 C48.5,14.7 51.5,16.8 52,20 Z" fill="#333535" fill-rule="nonzero"></path>
                    <path d="M26.5,44.7 C14.2,46.4 2.9,37.9 1.2,25.7 C-0.5,13.4 8,2.1 20.3,0.4 C32.6,-1.3 43.9,7.2 45.6,19.4" stroke="#818282"></path>
                </g>
                <g transform="translate(103.000000, 186.000000)" id="Path">
                    <path d="M51.1,20.6 C51.6,23.8 49.5,26.8 46.3,27.3 C43.1,27.8 40.1,25.7 39.6,22.5 C39.1,19.3 41.2,16.3 44.4,15.8 C47.6,15.3 50.6,17.5 51.1,20.6 Z" fill="#333535" fill-rule="nonzero"></path>
                    <path d="M25.7,45.4 C13.4,47.1 2.1,38.6 0.4,26.4 C-1.3,14.1 7.2,2.8 19.5,1.1 C31.8,-0.6 43.1,7.9 44.8,20.2" stroke="#818282"></path>
                </g>
                <g transform="translate(112.000000, 247.000000)" id="Path">
                    <path d="M51.8,20.1 C52.3,23.3 50.2,26.3 47,26.8 C43.8,27.3 40.8,25.2 40.3,22 C39.8,18.8 41.9,15.8 45.1,15.3 C48.3,14.8 51.3,16.9 51.8,20.1 Z" fill="#333535" fill-rule="nonzero"></path>
                    <path d="M26.3,44.8 C14,46.5 2.7,38 1,25.7 C-0.7,13.4 7.8,2.1 20.1,0.4 C32.4,-1.3 43.7,7.2 45.4,19.4" stroke="#818282"></path>
                </g>
                <g transform="translate(122.000000, 307.000000)" id="Path">
                    <path d="M51.7,20.5 C52.2,23.7 50.1,26.7 46.9,27.2 C43.7,27.7 40.7,25.6 40.2,22.4 C39.7,19.2 41.8,16.2 45,15.7 C48.2,15.2 51.2,17.3 51.7,20.5 Z" fill="#333535" fill-rule="nonzero"></path>
                    <path d="M26.2,45.3 C13.9,47 2.6,38.5 0.9,26.2 C-0.8,13.9 7.7,2.6 20,0.9 C32.3,-0.8 43.6,7.7 45.3,19.9" stroke="#818282"></path>
                </g>
                <g transform="translate(132.000000, 368.000000)" id="Path">
                    <path d="M51.4,20 C51.9,23.2 49.8,26.2 46.6,26.7 C43.4,27.2 40.4,25.1 39.9,21.9 C39.4,18.7 41.5,15.7 44.7,15.2 C47.8,14.7 50.8,16.8 51.4,20 Z" fill="#333535" fill-rule="nonzero"></path>
                    <path d="M25.9,44.7 C13.6,46.4 2.3,37.9 0.6,25.7 C-1.1,13.4 7.4,2.1 19.6,0.4 C31.9,-1.3 43.2,7.2 44.9,19.4" stroke="#818282"></path>
                </g>
                <rect id="Rectangle" fill="#4E4E4E" fill-rule="nonzero" transform="translate(254.347490, 198.638200) rotate(-8.992286) translate(-254.347490, -198.638200) " x="172.698266" y="150.988653" width="163.298447" height="95.2990937"></rect>
                <polygon id="Path" fill="#FFFFFF" fill-rule="nonzero" points="332.9 224.4 187.5 247.4 175.6 172.1 321 149"></polygon>
                <g transform="translate(189.000000, 160.000000)" fill="#818282" fill-rule="nonzero" id="Path">
                    <polygon points="121 7.2 1.4 26.3 0.4 19.8 119.9 0.7"></polygon>
                    <polygon points="124 23.5 4.5 42.6 3.4 36.1 123 17"></polygon>
                    <polygon points="126.7 40.8 7.2 59.9 6.1 53.4 125.7 34.3"></polygon>
                    <polygon points="75.8 66.2 9.9 76.7 8.8 70.2 74.7 59.7"></polygon>
                </g>
            </g>
        </g>
    </g>
</svg>